<?xml version="1.0" encoding="UTF-8"?>
<svg version="1.1" xmlns="http://www.w3.org/2000/svg" width="371" height="72">
<path d="M0 0 C122.43 0 244.86 0 371 0 C371 23.76 371 47.52 371 72 C248.57 72 126.14 72 0 72 C0 48.24 0 24.48 0 0 Z " fill="#40CC5E" transform="translate(0,0)"/>
<path d="M0 0 C122.43 0 244.86 0 371 0 C371 23.76 371 47.52 371 72 C348.89 72 326.78 72 304 72 C306.89793521 70.55103239 309.54827608 69.40993573 312.5625 68.3125 C326.26711752 62.79845418 334.54828546 53.62322043 343.5625 42.25 C348.71350089 35.88860491 354.6843185 29.6631363 363 28 C364.98 28 366.96 28 369 28 C368.67 20.74 368.34 13.48 368 6 C345.14480351 8.09680702 333.42232838 20.66570341 319.27636719 37.48925781 C313.43335087 44.4052075 308.15439272 49.18147349 298.88671875 50.4140625 C290.07520398 50.80752614 283.71522892 48.91753982 276.921875 43.2734375 C273.15030827 39.66520634 269.89800054 35.68329138 266.625 31.625 C256.8490445 19.53501044 247.34301274 10.7415417 232 7 C231.33742187 6.814375 230.67484375 6.62875 229.9921875 6.4375 C219.39340609 4.10992447 206.7638343 6.61612931 197.34375 11.6484375 C186.54432038 18.68262481 177.8619128 29.71242515 169.984375 39.7578125 C165.19576869 45.16856058 158.46730723 49.39972534 151.23828125 50.37109375 C141.04808806 50.60237984 134.86991177 47.95580905 127.48754883 40.9140625 C123.13140131 36.58879018 119.14699004 32.0464527 115.3125 27.25 C106.12941519 15.81228685 95.58454934 8.12731326 80.734375 6.2421875 C66.90453229 5.01725857 55.1221924 7.51976024 44.1015625 16.3125 C37.7017268 21.95644959 32.06645439 28.12679594 26.62744141 34.69702148 C22.18031772 40.02229872 17.27217653 45.21187649 11 48.375 C10.401875 48.69210938 9.80375 49.00921875 9.1875 49.3359375 C7 50 7 50 0 50 C0 33.5 0 17 0 0 Z " fill="#FDFEFD" transform="translate(0,0)"/>
<path d="M0 0 C1.8125 1.125 1.8125 1.125 3.5625 2.4375 C4.201875 2.911875 4.84125 3.38625 5.5 3.875 C9.44867566 7.08329897 12.63947151 10.6572851 15.8125 14.625 C25.58694224 26.81371271 36.44275217 38.64754364 52.5625 41.4375 C52.5625 41.7675 52.5625 42.0975 52.5625 42.4375 C9.9925 42.4375 -32.5775 42.4375 -76.4375 42.4375 C-76.4375 42.1075 -76.4375 41.7775 -76.4375 41.4375 C-74.890625 41.19 -74.890625 41.19 -73.3125 40.9375 C-57.65916496 36.94090382 -47.32390912 25.14565686 -37.58984375 13.05078125 C-27.99349882 1.3993207 -15.77319891 -7.21506722 0 0 Z " fill="#FDFEFD" transform="translate(233.4375,29.5625)"/>
<path d="M0 0 C9.94044106 4.49575503 16.39025366 13.3373593 23.0703125 21.62109375 C31.35736522 31.70035565 41.8474455 40.56504671 55.18359375 42.19140625 C55.18359375 42.52140625 55.18359375 42.85140625 55.18359375 43.19140625 C12.61359375 43.19140625 -29.95640625 43.19140625 -73.81640625 43.19140625 C-70.89943637 41.73292131 -68.2918114 40.63743047 -65.25390625 39.56640625 C-52.71065075 34.52703381 -44.40285634 24.90396908 -35.8515625 14.890625 C-25.99001816 3.37430905 -16.02465455 -4.60069832 0 0 Z " fill="#FDFEFE" transform="translate(83.81640625,28.80859375)"/>
</svg>
