<?xml version="1.0" encoding="UTF-8"?>
<svg xmlns="http://www.w3.org/2000/svg" xmlns:xlink="http://www.w3.org/1999/xlink" width="200px" height="170px" viewBox="0 0 200 170" version="1.1">
<g id="surface1">
<path style=" stroke:none;fill-rule:nonzero;fill:rgb(98.431373%,98.823529%,96.470588%);fill-opacity:1;" d="M 0 61.324219 C 66 61.324219 132 61.324219 200 61.324219 C 200 76.949219 200 92.578125 200 108.675781 C 134 108.675781 68 108.675781 0 108.675781 C 0 93.050781 0 77.421875 0 61.324219 Z M 0 61.324219 "/>
<path style=" stroke:none;fill-rule:nonzero;fill:rgb(0.784314%,39.215687%,24.705882%);fill-opacity:1;" d="M 0.835938 63.691406 C 18.800781 63.691406 18.800781 63.691406 20.195312 63.832031 C 20.332031 63.96875 20.332031 63.96875 20.472656 64.109375 C 20.707031 64.171875 20.941406 64.226562 21.179688 64.273438 C 24.109375 64.976562 26.675781 66.480469 28.332031 69.035156 C 29.269531 70.652344 29.691406 72.253906 29.691406 74.109375 C 29.695312 74.246094 29.695312 74.378906 29.699219 74.515625 C 29.703125 77.046875 28.484375 79.1875 26.761719 80.976562 C 25.871094 81.839844 24.714844 82.410156 23.539062 82.773438 C 23.539062 82.863281 23.539062 82.957031 23.539062 83.050781 C 23.777344 83.035156 23.777344 83.035156 24.023438 83.019531 C 24.703125 83.019531 25.179688 83.238281 25.765625 83.554688 C 25.863281 83.605469 25.960938 83.65625 26.0625 83.710938 C 26.757812 84.082031 27.402344 84.472656 27.996094 85 C 28.105469 85.09375 28.214844 85.1875 28.332031 85.28125 C 29.378906 86.234375 29.96875 87.328125 30.5 88.621094 C 30.542969 88.710938 30.582031 88.804688 30.625 88.894531 C 31.015625 89.890625 30.976562 90.890625 30.960938 91.945312 C 30.964844 92.128906 30.964844 92.308594 30.964844 92.496094 C 30.949219 95.453125 29.960938 97.984375 27.871094 100.101562 C 27.148438 100.808594 26.375 101.363281 25.488281 101.851562 C 25.359375 101.925781 25.230469 102 25.097656 102.078125 C 18.675781 105.570312 4.449219 103.773438 0.835938 103.800781 C 0.835938 90.566406 0.835938 77.328125 0.835938 63.691406 Z M 0.835938 63.691406 "/>
<path style=" stroke:none;fill-rule:nonzero;fill:rgb(0.392157%,40.000001%,24.705882%);fill-opacity:1;" d="M 61.617188 74.949219 C 64.222656 74.828125 66.367188 75.046875 68.800781 76.085938 C 68.894531 76.125 68.988281 76.164062 69.085938 76.203125 C 70.597656 76.832031 71.773438 77.792969 72.980469 78.871094 C 73.121094 78.996094 73.121094 78.996094 73.261719 79.117188 C 75.488281 81.183594 77.226562 84.707031 77.480469 87.726562 C 77.5 88.265625 77.503906 88.796875 77.5 89.335938 C 77.496094 89.429688 77.496094 89.523438 77.496094 89.621094 C 77.488281 91.164062 77.335938 92.578125 76.878906 94.054688 C 76.8125 94.292969 76.8125 94.292969 76.742188 94.535156 C 76.523438 95.261719 76.265625 95.902344 75.839844 96.527344 C 75.671875 96.773438 75.515625 97.023438 75.363281 97.277344 C 73.339844 100.621094 70.28125 102.949219 66.476562 103.925781 C 65.082031 104.246094 63.699219 104.289062 62.273438 104.296875 C 62.171875 104.300781 62.070312 104.300781 61.964844 104.300781 C 60.050781 104.316406 58.230469 104.011719 56.484375 103.183594 C 56.394531 103.140625 56.300781 103.101562 56.207031 103.058594 C 52.792969 101.480469 50.125 98.6875 48.746094 95.167969 C 48.503906 94.4375 48.335938 93.691406 48.1875 92.9375 C 48.164062 92.824219 48.140625 92.714844 48.113281 92.597656 C 47.90625 91.570312 47.867188 90.582031 47.875 89.535156 C 47.875 89.375 47.875 89.21875 47.871094 89.054688 C 47.875 87.417969 48.132812 85.964844 48.710938 84.433594 C 48.785156 84.234375 48.785156 84.234375 48.863281 84.03125 C 50.253906 80.371094 52.957031 77.535156 56.488281 75.875 C 57.902344 75.265625 59.214844 75.007812 60.75 74.980469 C 61.039062 74.976562 61.328125 74.964844 61.617188 74.949219 Z M 61.617188 74.949219 "/>
<path style=" stroke:none;fill-rule:nonzero;fill:rgb(0.784314%,53.725493%,30.588236%);fill-opacity:1;" d="M 99.652344 63.214844 C 100.042969 63.210938 100.429688 63.203125 100.816406 63.199219 C 103.199219 63.175781 105.21875 63.757812 107.398438 64.691406 C 107.671875 64.8125 107.953125 64.921875 108.230469 65.035156 C 109.417969 65.523438 110.40625 66.09375 111.421875 66.894531 C 111.566406 66.992188 111.714844 67.089844 111.863281 67.191406 C 112.777344 67.800781 113.46875 68.328125 114.066406 69.261719 C 113.863281 69.738281 113.597656 70.03125 113.222656 70.382812 C 112.757812 70.835938 112.339844 71.296875 111.933594 71.804688 C 111.382812 72.488281 110.800781 73.132812 110.203125 73.777344 C 109.710938 74.304688 109.234375 74.835938 108.773438 75.390625 C 108.078125 74.695312 108.078125 74.695312 107.753906 74.359375 C 106.585938 73.21875 105.253906 72.410156 103.761719 71.769531 C 103.625 71.707031 103.484375 71.648438 103.34375 71.585938 C 100.871094 70.6875 97.546875 70.90625 95.183594 72 C 92.207031 73.515625 90.226562 76.300781 89.140625 79.394531 C 88.289062 82.113281 88.191406 85.222656 89.136719 87.925781 C 89.195312 88.109375 89.253906 88.292969 89.3125 88.476562 C 90.289062 91.433594 92.175781 93.867188 94.964844 95.3125 C 97.480469 96.550781 100.75 96.808594 103.433594 95.917969 C 105.730469 94.964844 107.671875 93.695312 109.191406 91.683594 C 109.699219 91.761719 109.890625 91.933594 110.210938 92.328125 C 110.53125 92.714844 110.855469 93.078125 111.210938 93.425781 C 112.199219 94.398438 113.058594 95.484375 113.925781 96.558594 C 114.035156 96.675781 114.140625 96.792969 114.253906 96.910156 C 114.484375 97.257812 114.484375 97.257812 114.484375 97.605469 C 113.398438 100.324219 109.335938 102.15625 106.824219 103.246094 C 105.714844 103.707031 104.652344 103.894531 103.460938 104.011719 C 102.921875 104.066406 102.921875 104.066406 102.40625 104.222656 C 101.832031 104.367188 101.273438 104.402344 100.683594 104.402344 C 100.578125 104.402344 100.472656 104.402344 100.367188 104.402344 C 100.148438 104.402344 99.925781 104.402344 99.707031 104.402344 C 99.378906 104.402344 99.050781 104.40625 98.71875 104.410156 C 96.828125 104.417969 95.042969 104.171875 93.253906 103.53125 C 93.148438 103.496094 93.042969 103.457031 92.933594 103.421875 C 92.207031 103.164062 91.496094 102.898438 90.808594 102.546875 C 90.644531 102.46875 90.484375 102.390625 90.316406 102.304688 C 89.21875 101.75 88.253906 101.140625 87.324219 100.320312 C 87.152344 100.167969 87.152344 100.167969 86.976562 100.015625 C 86.621094 99.703125 86.277344 99.386719 85.933594 99.066406 C 85.828125 98.972656 85.722656 98.875 85.617188 98.777344 C 83.890625 97.140625 82.652344 95.03125 81.730469 92.859375 C 81.667969 92.722656 81.609375 92.589844 81.550781 92.449219 C 81.019531 91.210938 80.613281 90 80.34375 88.683594 C 80.320312 88.570312 80.296875 88.460938 80.273438 88.34375 C 79.167969 83.003906 80.066406 76.683594 83.007812 72.046875 C 83.730469 71.007812 84.523438 70.019531 85.34375 69.050781 C 85.425781 68.960938 85.503906 68.867188 85.585938 68.769531 C 85.792969 68.566406 85.792969 68.566406 86.074219 68.566406 C 86.101562 68.488281 86.128906 68.410156 86.160156 68.328125 C 86.421875 67.890625 86.785156 67.632812 87.1875 67.339844 C 87.269531 67.277344 87.351562 67.214844 87.433594 67.152344 C 87.601562 67.027344 87.769531 66.90625 87.933594 66.785156 C 88.125 66.644531 88.3125 66.5 88.496094 66.351562 C 90.007812 65.210938 91.828125 64.460938 93.628906 63.910156 C 93.785156 63.859375 93.785156 63.859375 93.945312 63.808594 C 95.8125 63.273438 97.726562 63.21875 99.652344 63.214844 Z M 99.652344 63.214844 "/>
<path style=" stroke:none;fill-rule:nonzero;fill:rgb(1.176471%,52.941179%,30.19608%);fill-opacity:1;" d="M 117.546875 62.996094 C 120.261719 62.996094 122.972656 62.996094 125.765625 62.996094 C 125.765625 68.1875 125.765625 73.382812 125.765625 78.734375 C 126.371094 78.203125 126.964844 77.679688 127.550781 77.132812 C 129.957031 74.96875 132.515625 74.527344 135.65625 74.660156 C 136.601562 74.734375 137.4375 75.003906 138.300781 75.390625 C 138.394531 75.433594 138.492188 75.472656 138.589844 75.515625 C 141.09375 76.640625 142.820312 78.167969 143.933594 80.726562 C 144.914062 83.304688 144.90625 85.832031 144.890625 88.550781 C 144.886719 89.082031 144.886719 89.613281 144.886719 90.148438 C 144.882812 91.152344 144.882812 92.160156 144.875 93.164062 C 144.871094 94.308594 144.871094 95.457031 144.867188 96.601562 C 144.863281 98.957031 144.855469 101.308594 144.847656 103.664062 C 142.179688 103.664062 139.515625 103.664062 136.769531 103.664062 C 136.761719 102.488281 136.753906 101.3125 136.75 100.101562 C 136.742188 99.257812 136.738281 98.417969 136.730469 97.574219 C 136.722656 96.484375 136.714844 95.394531 136.710938 94.308594 C 136.707031 93.445312 136.699219 92.582031 136.691406 91.71875 C 136.691406 91.261719 136.6875 90.804688 136.683594 90.351562 C 136.683594 89.839844 136.679688 89.328125 136.675781 88.816406 C 136.671875 88.667969 136.671875 88.519531 136.671875 88.367188 C 136.652344 86.320312 136.375 84.546875 134.941406 83.007812 C 133.8125 81.992188 132.339844 81.867188 130.882812 81.894531 C 129.40625 82.011719 128.417969 82.65625 127.4375 83.746094 C 125.695312 85.914062 125.820312 88.375 125.820312 91.015625 C 125.816406 91.378906 125.816406 91.746094 125.8125 92.109375 C 125.808594 92.96875 125.804688 93.828125 125.804688 94.6875 C 125.800781 95.765625 125.792969 96.839844 125.789062 97.917969 C 125.777344 99.832031 125.773438 101.746094 125.765625 103.664062 C 123.054688 103.707031 120.34375 103.753906 117.546875 103.800781 C 117.546875 90.335938 117.546875 76.871094 117.546875 62.996094 Z M 117.546875 62.996094 "/>
<path style=" stroke:none;fill-rule:nonzero;fill:rgb(1.176471%,52.941179%,29.411766%);fill-opacity:1;" d="M 162.195312 74.78125 C 162.34375 74.78125 162.34375 74.78125 162.492188 74.78125 C 164.050781 74.789062 165.511719 74.882812 166.992188 75.390625 C 167.09375 75.425781 167.195312 75.457031 167.300781 75.492188 C 168.625 75.957031 169.722656 76.503906 170.753906 77.480469 C 170.835938 77.550781 170.921875 77.625 171.007812 77.699219 C 173.078125 79.566406 174.195312 82.625 174.410156 85.34375 C 174.464844 86.546875 174.457031 87.75 174.445312 88.953125 C 174.441406 89.472656 174.4375 89.992188 174.4375 90.511719 C 174.4375 91.488281 174.429688 92.46875 174.421875 93.445312 C 174.414062 94.5625 174.410156 95.675781 174.40625 96.792969 C 174.402344 99.082031 174.386719 101.371094 174.375 103.664062 C 171.984375 103.664062 169.59375 103.664062 167.132812 103.664062 C 167.132812 102.742188 167.132812 101.824219 167.132812 100.878906 C 166.578125 101.246094 166.167969 101.53125 165.703125 101.972656 C 163.207031 104.230469 160.230469 104.527344 157.007812 104.390625 C 154.671875 104.230469 152.808594 103.210938 151.210938 101.511719 C 150.578125 100.753906 150.109375 99.972656 149.722656 99.066406 C 149.667969 98.957031 149.613281 98.84375 149.554688 98.730469 C 148.695312 96.699219 148.929688 93.828125 149.699219 91.792969 C 150.039062 91.035156 150.546875 90.335938 151.113281 89.734375 C 151.207031 89.734375 151.296875 89.734375 151.394531 89.734375 C 151.394531 89.644531 151.394531 89.550781 151.394531 89.457031 C 155.070312 86.542969 159.046875 86.199219 163.597656 86.234375 C 163.902344 86.238281 164.203125 86.238281 164.507812 86.238281 C 165.242188 86.242188 165.976562 86.246094 166.714844 86.253906 C 166.652344 85.921875 166.589844 85.59375 166.527344 85.261719 C 166.511719 85.171875 166.496094 85.078125 166.480469 84.984375 C 166.25 83.789062 165.773438 82.777344 164.761719 82.074219 C 163.011719 81.207031 160.6875 81.257812 158.828125 81.734375 C 157.539062 82.171875 156.417969 82.886719 155.367188 83.738281 C 155.152344 83.886719 155.152344 83.886719 154.875 83.886719 C 154.875 83.976562 154.875 84.070312 154.875 84.164062 C 154.78125 84.164062 154.691406 84.164062 154.597656 84.164062 C 154.597656 84.257812 154.597656 84.347656 154.597656 84.441406 C 154.320312 84.511719 154.320312 84.511719 154.039062 84.582031 C 152.996094 83.382812 152.160156 82.050781 151.3125 80.710938 C 151.140625 80.445312 150.960938 80.191406 150.773438 79.9375 C 150.558594 79.566406 150.558594 79.566406 150.542969 79.28125 C 150.777344 78.867188 151.128906 78.617188 151.507812 78.339844 C 151.585938 78.28125 151.667969 78.21875 151.753906 78.15625 C 154.804688 75.914062 158.421875 74.769531 162.195312 74.78125 Z M 162.195312 74.78125 "/>
<path style=" stroke:none;fill-rule:nonzero;fill:rgb(0.784314%,52.941179%,30.19608%);fill-opacity:1;" d="M 189.832031 67.035156 C 189.832031 69.882812 189.832031 72.734375 189.832031 75.667969 C 191.855469 75.667969 193.878906 75.667969 195.960938 75.667969 C 195.960938 77.828125 195.960938 79.988281 195.960938 82.214844 C 193.9375 82.261719 191.917969 82.304688 189.832031 82.355469 C 189.820312 84.476562 189.820312 84.476562 189.8125 86.597656 C 189.808594 87.464844 189.808594 88.332031 189.800781 89.199219 C 189.796875 89.898438 189.792969 90.597656 189.792969 91.296875 C 189.792969 91.5625 189.789062 91.828125 189.789062 92.09375 C 189.785156 92.46875 189.785156 92.84375 189.785156 93.214844 C 189.785156 93.324219 189.78125 93.433594 189.78125 93.546875 C 189.785156 94.5 189.964844 95.375 190.582031 96.125 C 192.21875 97.453125 194.121094 97.171875 196.101562 96.976562 C 196.140625 97.578125 196.179688 98.175781 196.21875 98.773438 C 196.234375 98.976562 196.246094 99.179688 196.257812 99.382812 C 196.300781 99.972656 196.335938 100.558594 196.363281 101.148438 C 196.375 101.339844 196.386719 101.53125 196.394531 101.722656 C 196.410156 101.992188 196.421875 102.261719 196.429688 102.53125 C 196.4375 102.683594 196.445312 102.839844 196.453125 103 C 196.378906 103.382812 196.378906 103.382812 196.050781 103.640625 C 195.679688 103.804688 195.324219 103.925781 194.933594 104.027344 C 194.808594 104.0625 194.683594 104.09375 194.554688 104.128906 C 191.535156 104.800781 188.109375 104.601562 185.417969 102.992188 C 183.546875 101.757812 182.367188 99.703125 181.894531 97.535156 C 181.753906 96.726562 181.734375 95.949219 181.738281 95.132812 C 181.738281 94.992188 181.738281 94.851562 181.738281 94.707031 C 181.738281 94.246094 181.738281 93.785156 181.742188 93.328125 C 181.742188 93.007812 181.742188 92.6875 181.742188 92.367188 C 181.742188 91.523438 181.742188 90.683594 181.746094 89.84375 C 181.746094 88.984375 181.746094 88.125 181.75 87.265625 C 181.75 85.582031 181.753906 83.898438 181.753906 82.214844 C 180.238281 82.214844 178.722656 82.214844 177.160156 82.214844 C 176.972656 81.660156 177 81.132812 177 80.558594 C 177 80.433594 177 80.3125 177 80.1875 C 177 79.929688 177 79.671875 177 79.414062 C 177.003906 79.023438 177 78.628906 177 78.234375 C 177 77.984375 177 77.734375 177 77.484375 C 177 77.308594 177 77.308594 177 77.128906 C 177 77.015625 177 76.90625 177 76.792969 C 177 76.699219 177 76.601562 177 76.5 C 177.019531 76.226562 177.019531 76.226562 177.160156 75.667969 C 178.675781 75.667969 180.191406 75.667969 181.753906 75.667969 C 181.753906 73.460938 181.753906 71.257812 181.753906 68.984375 C 182.550781 68.789062 183.347656 68.597656 184.167969 68.398438 C 186.511719 67.832031 186.511719 67.832031 188.851562 67.21875 C 189.527344 67.035156 189.527344 67.035156 189.832031 67.035156 Z M 189.832031 67.035156 "/>
<path style=" stroke:none;fill-rule:nonzero;fill:rgb(0%,40.000001%,25.490198%);fill-opacity:1;" d="M 35.65625 75.808594 C 38.273438 75.808594 40.894531 75.808594 43.59375 75.808594 C 43.59375 85 43.59375 94.191406 43.59375 103.664062 C 40.972656 103.664062 38.355469 103.664062 35.65625 103.664062 C 35.65625 94.472656 35.65625 85.277344 35.65625 75.808594 Z M 35.65625 75.808594 "/>
<path style=" stroke:none;fill-rule:nonzero;fill:rgb(98.431373%,99.215686%,96.862745%);fill-opacity:1;" d="M 62.613281 82.1875 C 62.804688 82.1875 62.804688 82.1875 63 82.1875 C 64.726562 82.199219 64.726562 82.199219 65.117188 82.542969 C 65.183594 82.621094 65.25 82.695312 65.320312 82.773438 C 65.558594 82.921875 65.800781 83.066406 66.042969 83.207031 C 67.617188 84.199219 68.632812 85.707031 69.082031 87.507812 C 69.5 89.988281 69.214844 92.253906 67.828125 94.363281 C 66.730469 95.882812 65.304688 96.542969 63.507812 96.976562 C 61.679688 97.222656 59.832031 96.683594 58.355469 95.585938 C 56.957031 94.449219 56.148438 92.742188 55.847656 90.988281 C 55.636719 88.714844 55.828125 86.605469 57.261719 84.742188 C 58.71875 83.074219 60.398438 82.160156 62.613281 82.1875 Z M 62.613281 82.1875 "/>
<path style=" stroke:none;fill-rule:nonzero;fill:rgb(98.431373%,99.215686%,97.254902%);fill-opacity:1;" d="M 10.242188 86.640625 C 10.410156 86.640625 10.574219 86.636719 10.746094 86.632812 C 11.511719 86.625 12.28125 86.617188 13.046875 86.613281 C 13.449219 86.613281 13.855469 86.609375 14.257812 86.601562 C 19.105469 86.519531 19.105469 86.519531 20.988281 87.976562 C 22.011719 89.003906 22.3125 89.949219 22.320312 91.378906 C 22.316406 92.210938 22.285156 92.90625 21.867188 93.636719 C 21.808594 93.738281 21.753906 93.839844 21.695312 93.945312 C 20.890625 95.28125 19.746094 96.042969 18.246094 96.421875 C 17.554688 96.492188 16.875 96.488281 16.179688 96.480469 C 15.988281 96.480469 15.792969 96.480469 15.597656 96.476562 C 15.195312 96.476562 14.792969 96.472656 14.386719 96.46875 C 13.871094 96.464844 13.351562 96.460938 12.835938 96.460938 C 12.339844 96.460938 11.84375 96.457031 11.351562 96.453125 C 11.253906 96.453125 11.160156 96.453125 11.0625 96.453125 C 10.796875 96.449219 10.535156 96.449219 10.269531 96.445312 C 10.117188 96.445312 9.964844 96.441406 9.808594 96.441406 C 9.472656 96.421875 9.472656 96.421875 9.332031 96.28125 C 9.316406 95.988281 9.3125 95.691406 9.3125 95.398438 C 9.3125 95.261719 9.3125 95.261719 9.3125 95.121094 C 9.3125 94.8125 9.3125 94.507812 9.3125 94.199219 C 9.3125 93.988281 9.3125 93.777344 9.3125 93.566406 C 9.3125 93.121094 9.3125 92.675781 9.3125 92.230469 C 9.3125 91.660156 9.3125 91.089844 9.3125 90.519531 C 9.3125 90.082031 9.3125 89.644531 9.3125 89.207031 C 9.3125 88.996094 9.3125 88.785156 9.3125 88.574219 C 9.3125 88.28125 9.3125 87.988281 9.3125 87.695312 C 9.3125 87.527344 9.3125 87.359375 9.3125 87.1875 C 9.34375 86.519531 9.648438 86.652344 10.242188 86.640625 Z M 10.242188 86.640625 "/>
<path style=" stroke:none;fill-rule:nonzero;fill:rgb(98.039216%,98.823529%,96.862745%);fill-opacity:1;" d="M 10.085938 70.914062 C 10.21875 70.910156 10.347656 70.910156 10.484375 70.910156 C 10.628906 70.910156 10.769531 70.910156 10.917969 70.910156 C 11.066406 70.910156 11.214844 70.910156 11.363281 70.90625 C 11.679688 70.90625 11.992188 70.90625 12.304688 70.90625 C 12.78125 70.90625 13.253906 70.90625 13.730469 70.902344 C 14.035156 70.902344 14.339844 70.902344 14.644531 70.902344 C 14.785156 70.898438 14.925781 70.898438 15.070312 70.898438 C 16.800781 70.902344 18.652344 71.085938 19.949219 72.351562 C 20.976562 73.609375 21.042969 74.941406 20.890625 76.503906 C 20.621094 77.671875 19.78125 78.628906 18.792969 79.273438 C 17.472656 80.027344 16.0625 80.007812 14.574219 80.003906 C 14.429688 80.003906 14.285156 80.003906 14.132812 80.003906 C 13.828125 80.003906 13.519531 80.003906 13.210938 80.003906 C 12.742188 80.003906 12.269531 80.003906 11.796875 80.003906 C 11.5 80.003906 11.203125 80.003906 10.902344 80.003906 C 10.761719 80.003906 10.621094 80.003906 10.472656 80.003906 C 10.277344 80.003906 10.277344 80.003906 10.082031 80.003906 C 9.964844 80.003906 9.851562 80.003906 9.734375 80.003906 C 9.472656 79.984375 9.472656 79.984375 9.332031 79.847656 C 9.316406 79.574219 9.3125 79.300781 9.3125 79.027344 C 9.3125 78.851562 9.3125 78.675781 9.3125 78.496094 C 9.3125 78.304688 9.3125 78.109375 9.3125 77.917969 C 9.3125 77.722656 9.3125 77.527344 9.3125 77.328125 C 9.3125 76.917969 9.3125 76.507812 9.3125 76.09375 C 9.3125 75.566406 9.3125 75.039062 9.3125 74.507812 C 9.3125 74.101562 9.3125 73.699219 9.3125 73.292969 C 9.3125 73.097656 9.3125 72.902344 9.3125 72.707031 C 9.3125 72.4375 9.3125 72.164062 9.3125 71.890625 C 9.3125 71.734375 9.3125 71.582031 9.3125 71.421875 C 9.34375 70.835938 9.558594 70.914062 10.085938 70.914062 Z M 10.085938 70.914062 "/>
<path style=" stroke:none;fill-rule:nonzero;fill:rgb(0.784314%,38.431373%,22.352941%);fill-opacity:1;" d="M 42.164062 62.820312 C 43.308594 63.453125 43.960938 64.410156 44.449219 65.613281 C 44.800781 66.910156 44.753906 68.238281 44.125 69.425781 C 43.953125 69.703125 43.777344 69.972656 43.59375 70.238281 C 43.535156 70.328125 43.472656 70.417969 43.414062 70.507812 C 42.769531 71.378906 41.832031 71.804688 40.808594 72.046875 C 39.195312 72.238281 37.992188 72.058594 36.679688 71.074219 C 35.722656 70.285156 35.207031 69.453125 34.820312 68.285156 C 34.679688 66.554688 34.773438 65.367188 35.878906 63.964844 C 37.402344 62.269531 40.125 61.921875 42.164062 62.820312 Z M 42.164062 62.820312 "/>
<path style=" stroke:none;fill-rule:nonzero;fill:rgb(96.470588%,98.039216%,97.647059%);fill-opacity:1;" d="M 165.050781 91.257812 C 165.222656 91.257812 165.398438 91.261719 165.578125 91.261719 C 166.003906 91.261719 166.425781 91.265625 166.851562 91.265625 C 166.894531 93.285156 166.867188 95.179688 165.441406 96.738281 C 164.0625 98.007812 162.277344 98.628906 160.410156 98.554688 C 159.214844 98.414062 158.238281 97.949219 157.484375 96.996094 C 156.976562 96.269531 156.730469 95.570312 156.753906 94.679688 C 156.96875 93.609375 157.730469 92.765625 158.59375 92.144531 C 159.15625 91.828125 159.738281 91.738281 160.367188 91.640625 C 160.492188 91.621094 160.617188 91.597656 160.742188 91.578125 C 161.109375 91.515625 161.472656 91.457031 161.839844 91.40625 C 161.9375 91.390625 162.039062 91.375 162.140625 91.363281 C 163.109375 91.234375 164.074219 91.253906 165.050781 91.257812 Z M 165.050781 91.257812 "/>
<path style=" stroke:none;fill-rule:nonzero;fill:rgb(90.196079%,98.431373%,89.019608%);fill-opacity:1;" d="M 2.785156 63.273438 C 4.769531 63.269531 6.75 63.265625 8.734375 63.265625 C 9.65625 63.265625 10.578125 63.265625 11.496094 63.261719 C 12.386719 63.261719 13.273438 63.261719 14.164062 63.261719 C 14.503906 63.257812 14.839844 63.257812 15.179688 63.257812 C 15.65625 63.257812 16.128906 63.257812 16.605469 63.257812 C 16.746094 63.257812 16.886719 63.257812 17.03125 63.253906 C 17.683594 63.257812 18.300781 63.277344 18.941406 63.414062 C 18.894531 63.503906 18.847656 63.597656 18.800781 63.691406 C 12.917969 63.691406 7.035156 63.691406 0.976562 63.691406 C 0.976562 63.644531 0.976562 63.597656 0.976562 63.550781 C 1.625 63.433594 2.140625 63.410156 2.785156 63.550781 C 2.785156 63.460938 2.785156 63.367188 2.785156 63.273438 Z M 2.785156 63.273438 "/>
<path style=" stroke:none;fill-rule:nonzero;fill:rgb(82.352942%,97.647059%,86.274511%);fill-opacity:1;" d="M 181.617188 69.121094 C 181.660156 69.121094 181.707031 69.121094 181.753906 69.121094 C 181.753906 71.28125 181.753906 73.441406 181.753906 75.667969 C 180.238281 75.667969 178.722656 75.667969 177.160156 75.667969 C 177.160156 77.828125 177.160156 79.988281 177.160156 82.214844 C 177.941406 82.214844 178.722656 82.214844 179.527344 82.214844 C 179.527344 82.261719 179.527344 82.304688 179.527344 82.355469 C 178.699219 82.355469 177.871094 82.355469 177.019531 82.355469 C 176.707031 81.257812 176.707031 81.257812 176.710938 80.730469 C 176.710938 80.613281 176.710938 80.496094 176.710938 80.375 C 176.710938 80.253906 176.710938 80.128906 176.714844 80.003906 C 176.714844 79.875 176.714844 79.746094 176.714844 79.613281 C 176.714844 79.207031 176.71875 78.800781 176.722656 78.394531 C 176.726562 78.117188 176.726562 77.839844 176.726562 77.5625 C 176.730469 76.882812 176.734375 76.207031 176.742188 75.527344 C 177.164062 75.320312 177.589844 75.390625 178.050781 75.40625 C 178.140625 75.410156 178.230469 75.414062 178.324219 75.414062 C 178.660156 75.425781 179 75.4375 179.335938 75.449219 C 180.464844 75.488281 180.464844 75.488281 181.617188 75.527344 C 181.617188 73.414062 181.617188 71.300781 181.617188 69.121094 Z M 181.617188 69.121094 "/>
<path style=" stroke:none;fill-rule:nonzero;fill:rgb(63.137257%,90.588236%,75.686276%);fill-opacity:1;" d="M 98.1875 63.132812 C 99.046875 63.125 99.902344 63.121094 100.761719 63.117188 C 101.054688 63.117188 101.34375 63.113281 101.636719 63.113281 C 102.054688 63.109375 102.476562 63.109375 102.894531 63.105469 C 103.023438 63.105469 103.15625 63.105469 103.289062 63.101562 C 103.96875 63.101562 104.515625 63.144531 105.152344 63.414062 C 105.152344 63.503906 105.152344 63.597656 105.152344 63.691406 C 105.308594 63.703125 105.464844 63.714844 105.625 63.726562 C 106.742188 63.867188 107.742188 64.410156 108.730469 64.921875 C 109.054688 65.089844 109.054688 65.089844 109.417969 65.21875 C 109.863281 65.410156 110.121094 65.707031 110.445312 66.058594 C 109.949219 66.058594 109.726562 65.925781 109.289062 65.691406 C 107.675781 64.871094 106.078125 64.25 104.335938 63.773438 C 104.085938 63.703125 103.835938 63.625 103.589844 63.546875 C 103.011719 63.398438 102.496094 63.363281 101.902344 63.355469 C 101.796875 63.351562 101.6875 63.347656 101.578125 63.347656 C 101.242188 63.339844 100.902344 63.332031 100.566406 63.324219 C 100.335938 63.320312 100.105469 63.3125 99.875 63.308594 C 99.3125 63.296875 98.75 63.285156 98.1875 63.273438 C 98.1875 63.226562 98.1875 63.179688 98.1875 63.132812 Z M 98.1875 63.132812 "/>
<path style=" stroke:none;fill-rule:nonzero;fill:rgb(33.725491%,74.901962%,58.823532%);fill-opacity:1;" d="M 177.160156 75.667969 C 177.25 75.714844 177.34375 75.761719 177.4375 75.808594 C 177.554688 77.898438 177.589844 79.980469 177.578125 82.074219 C 178.910156 82.074219 180.242188 82.074219 181.617188 82.074219 C 181.617188 82.121094 181.617188 82.167969 181.617188 82.214844 C 180.144531 82.214844 178.675781 82.214844 177.160156 82.214844 C 176.972656 81.660156 177 81.132812 177 80.558594 C 177 80.433594 177 80.3125 177 80.1875 C 177 79.929688 177 79.671875 177 79.414062 C 177.003906 79.023438 177 78.628906 177 78.234375 C 177 77.984375 177 77.734375 177 77.484375 C 177 77.367188 177 77.25 177 77.128906 C 177 77.015625 177 76.90625 177 76.792969 C 177 76.699219 177 76.601562 177 76.5 C 177.019531 76.210938 177.078125 75.949219 177.160156 75.667969 Z M 177.160156 75.667969 "/>
<path style=" stroke:none;fill-rule:nonzero;fill:rgb(65.098041%,90.196079%,78.431374%);fill-opacity:1;" d="M 88.859375 79.847656 C 88.902344 79.847656 88.949219 79.847656 88.996094 79.847656 C 88.996094 80.011719 88.996094 80.011719 88.996094 80.183594 C 88.980469 82.488281 89.003906 84.785156 89.136719 87.089844 C 89.226562 87.089844 89.320312 87.089844 89.414062 87.089844 C 89.414062 87.640625 89.414062 88.191406 89.414062 88.761719 C 89.164062 88.382812 89.050781 88.128906 88.925781 87.699219 C 88.894531 87.585938 88.863281 87.476562 88.828125 87.363281 C 88.792969 87.226562 88.753906 87.089844 88.71875 86.949219 C 88.695312 86.863281 88.667969 86.78125 88.644531 86.691406 C 88.390625 85.71875 88.398438 84.757812 88.40625 83.753906 C 88.402344 83.585938 88.402344 83.417969 88.402344 83.242188 C 88.402344 82.261719 88.476562 81.355469 88.71875 80.402344 C 88.757812 80.246094 88.757812 80.246094 88.796875 80.085938 C 88.816406 80.007812 88.835938 79.929688 88.859375 79.847656 Z M 88.859375 79.847656 "/>
<path style=" stroke:none;fill-rule:nonzero;fill:rgb(70.19608%,89.019608%,77.254903%);fill-opacity:1;" d="M 62.8125 74.398438 C 63.011719 74.398438 63.011719 74.398438 63.210938 74.394531 C 63.972656 74.398438 64.710938 74.417969 65.460938 74.554688 C 65.527344 74.691406 65.527344 74.691406 65.597656 74.832031 C 65.828125 74.933594 66.058594 75.027344 66.296875 75.113281 C 65.773438 75.269531 65.773438 75.269531 65.460938 75.113281 C 65.261719 75.097656 65.0625 75.09375 64.867188 75.09375 C 64.742188 75.09375 64.621094 75.09375 64.492188 75.09375 C 64.359375 75.097656 64.226562 75.097656 64.09375 75.097656 C 63.886719 75.097656 63.886719 75.097656 63.679688 75.097656 C 63.246094 75.097656 62.8125 75.101562 62.378906 75.101562 C 62.085938 75.101562 61.789062 75.105469 61.496094 75.105469 C 60.773438 75.105469 60.054688 75.109375 59.332031 75.113281 C 59.332031 75.019531 59.332031 74.925781 59.332031 74.832031 C 60.476562 74.402344 61.605469 74.394531 62.8125 74.398438 Z M 62.8125 74.398438 "/>
<path style=" stroke:none;fill-rule:nonzero;fill:rgb(62.7451%,85.490197%,70.19608%);fill-opacity:1;" d="M 195.960938 75.667969 C 196.25 76.105469 196.277344 76.210938 196.285156 76.710938 C 196.285156 76.835938 196.289062 76.964844 196.292969 77.09375 C 196.292969 77.226562 196.296875 77.359375 196.296875 77.5 C 196.300781 77.621094 196.300781 77.742188 196.304688 77.871094 C 196.3125 78.328125 196.320312 78.789062 196.328125 79.246094 C 196.34375 80.273438 196.359375 81.296875 196.378906 82.355469 C 194.21875 82.355469 192.058594 82.355469 189.832031 82.355469 C 189.832031 82.308594 189.832031 82.261719 189.832031 82.214844 C 191.855469 82.214844 193.878906 82.214844 195.960938 82.214844 C 195.960938 80.054688 195.960938 77.894531 195.960938 75.667969 Z M 195.960938 75.667969 "/>
<path style=" stroke:none;fill-rule:nonzero;fill:rgb(23.921569%,59.215689%,43.921569%);fill-opacity:1;" d="M 76.742188 85.277344 C 77.5625 86.101562 77.492188 87.695312 77.503906 88.785156 C 77.5 88.964844 77.5 89.148438 77.5 89.335938 C 77.5 89.476562 77.5 89.476562 77.496094 89.621094 C 77.492188 91.15625 77.332031 92.585938 76.878906 94.054688 C 76.835938 94.054688 76.789062 94.054688 76.742188 94.054688 C 76.761719 93.882812 76.785156 93.710938 76.804688 93.535156 C 77.332031 89.898438 77.332031 89.898438 76.742188 86.394531 C 76.722656 86.019531 76.734375 85.652344 76.742188 85.277344 Z M 76.742188 85.277344 "/>
<path style=" stroke:none;fill-rule:nonzero;fill:rgb(79.215688%,96.862745%,84.313726%);fill-opacity:1;" d="M 149.722656 91.683594 C 149.722656 92.113281 149.640625 92.40625 149.519531 92.816406 C 149.160156 94.3125 149.195312 95.867188 149.164062 97.394531 C 149.074219 97.351562 148.980469 97.304688 148.886719 97.257812 C 148.714844 96.449219 148.722656 95.640625 148.71875 94.820312 C 148.71875 94.691406 148.71875 94.566406 148.714844 94.433594 C 148.714844 93.695312 148.78125 93.082031 149.023438 92.382812 C 149.117188 92.382812 149.207031 92.382812 149.304688 92.382812 C 149.304688 92.199219 149.304688 92.015625 149.304688 91.824219 C 149.441406 91.777344 149.578125 91.734375 149.722656 91.683594 Z M 149.722656 91.683594 "/>
<path style=" stroke:none;fill-rule:nonzero;fill:rgb(80.000001%,95.686275%,89.803922%);fill-opacity:1;" d="M 97.074219 63.273438 C 97.074219 63.320312 97.074219 63.363281 97.074219 63.414062 C 96.957031 63.421875 96.839844 63.433594 96.714844 63.445312 C 94.425781 63.691406 92.335938 64.394531 90.28125 65.425781 C 89.832031 65.640625 89.832031 65.640625 89.554688 65.640625 C 89.554688 65.546875 89.554688 65.457031 89.554688 65.363281 C 89.785156 65.269531 90.015625 65.179688 90.25 65.082031 C 90.25 64.992188 90.25 64.898438 90.25 64.804688 C 90.617188 64.757812 90.984375 64.714844 91.363281 64.664062 C 91.410156 64.527344 91.457031 64.390625 91.503906 64.246094 C 91.839844 64.125 91.839844 64.125 92.253906 64.03125 C 92.742188 63.917969 93.03125 63.832031 93.453125 63.550781 C 93.808594 63.484375 94.152344 63.433594 94.507812 63.394531 C 94.605469 63.382812 94.707031 63.371094 94.808594 63.359375 C 95.566406 63.273438 96.3125 63.238281 97.074219 63.273438 Z M 97.074219 63.273438 "/>
<path style=" stroke:none;fill-rule:nonzero;fill:rgb(85.09804%,95.686275%,87.058824%);fill-opacity:1;" d="M 9.332031 86.8125 C 9.378906 86.8125 9.421875 86.8125 9.472656 86.8125 C 9.472656 86.929688 9.472656 86.929688 9.476562 87.050781 C 9.492188 87.898438 9.507812 88.742188 9.523438 89.589844 C 9.527344 89.902344 9.535156 90.214844 9.539062 90.53125 C 9.574219 92.402344 9.625 94.273438 9.75 96.140625 C 10.253906 96.1875 10.761719 96.234375 11.28125 96.28125 C 11.28125 96.328125 11.28125 96.375 11.28125 96.421875 C 10.984375 96.425781 10.683594 96.425781 10.382812 96.429688 C 10.21875 96.429688 10.050781 96.433594 9.878906 96.433594 C 9.472656 96.421875 9.472656 96.421875 9.332031 96.28125 C 9.320312 95.988281 9.316406 95.691406 9.316406 95.394531 C 9.316406 95.304688 9.316406 95.210938 9.316406 95.117188 C 9.316406 94.808594 9.316406 94.503906 9.316406 94.195312 C 9.316406 93.984375 9.320312 93.773438 9.320312 93.558594 C 9.320312 93 9.320312 92.441406 9.320312 91.882812 C 9.324219 91.3125 9.324219 90.742188 9.324219 90.171875 C 9.324219 89.050781 9.328125 87.929688 9.332031 86.8125 Z M 9.332031 86.8125 "/>
<path style=" stroke:none;fill-rule:nonzero;fill:rgb(56.078434%,81.960785%,67.450982%);fill-opacity:1;" d="M 20.472656 64.109375 C 20.835938 64.128906 21.199219 64.148438 21.5625 64.167969 C 21.714844 64.175781 21.714844 64.175781 21.871094 64.1875 C 22.996094 64.253906 22.996094 64.253906 23.300781 64.585938 C 23.542969 64.839844 23.542969 64.839844 23.972656 64.945312 C 24.105469 64.988281 24.238281 65.035156 24.375 65.082031 C 24.417969 65.222656 24.464844 65.359375 24.511719 65.5 C 23.832031 65.28125 23.160156 65.046875 22.492188 64.796875 C 21.824219 64.550781 21.171875 64.386719 20.472656 64.246094 C 20.472656 64.203125 20.472656 64.15625 20.472656 64.109375 Z M 20.472656 64.109375 "/>
<path style=" stroke:none;fill-rule:nonzero;fill:rgb(88.627452%,99.607843%,94.901961%);fill-opacity:1;" d="M 95.402344 62.996094 C 95.664062 62.945312 95.664062 62.945312 95.984375 62.945312 C 96.164062 62.945312 96.164062 62.945312 96.347656 62.945312 C 96.476562 62.949219 96.609375 62.953125 96.742188 62.953125 C 96.875 62.953125 97.007812 62.953125 97.144531 62.957031 C 97.566406 62.957031 97.992188 62.960938 98.414062 62.96875 C 98.703125 62.96875 98.992188 62.972656 99.277344 62.972656 C 99.984375 62.980469 100.6875 62.984375 101.394531 62.996094 C 101.394531 63.039062 101.394531 63.085938 101.394531 63.132812 C 98.289062 63.269531 98.289062 63.269531 95.125 63.414062 C 95.21875 63.273438 95.308594 63.136719 95.402344 62.996094 Z M 95.402344 62.996094 "/>
<path style=" stroke:none;fill-rule:nonzero;fill:rgb(1.568628%,45.09804%,27.058825%);fill-opacity:1;" d="M 76.878906 92.242188 C 77.238281 93.328125 76.734375 94.59375 76.324219 95.605469 C 76.183594 95.863281 76.183594 95.863281 75.90625 96.003906 C 75.808594 95.769531 75.808594 95.769531 75.765625 95.445312 C 75.828125 95.347656 75.890625 95.25 75.953125 95.148438 C 76.242188 94.648438 76.355469 94.167969 76.480469 93.609375 C 76.726562 92.546875 76.726562 92.546875 76.878906 92.242188 Z M 76.878906 92.242188 "/>
<path style=" stroke:none;fill-rule:nonzero;fill:rgb(8.627451%,49.803922%,27.843139%);fill-opacity:1;" d="M 139.277344 75.945312 C 139.910156 76.128906 140.386719 76.378906 140.921875 76.765625 C 141.054688 76.859375 141.1875 76.953125 141.324219 77.050781 C 141.648438 77.34375 141.738281 77.46875 141.78125 77.898438 C 141.644531 77.851562 141.507812 77.804688 141.363281 77.757812 C 141.363281 77.664062 141.363281 77.574219 141.363281 77.480469 C 141.234375 77.457031 141.234375 77.457031 141.105469 77.4375 C 140.808594 77.339844 140.808594 77.339844 140.527344 76.921875 C 140.167969 76.886719 140.167969 76.886719 139.832031 76.921875 C 139.832031 76.785156 139.832031 76.644531 139.832031 76.503906 C 139.648438 76.414062 139.464844 76.320312 139.277344 76.226562 C 139.277344 76.132812 139.277344 76.042969 139.277344 75.945312 Z M 139.277344 75.945312 "/>
<path style=" stroke:none;fill-rule:nonzero;fill:rgb(67.450982%,85.882354%,76.47059%);fill-opacity:1;" d="M 66.296875 75.25 C 67.28125 75.195312 68.132812 75.402344 69.082031 75.667969 C 69.082031 75.851562 69.082031 76.035156 69.082031 76.226562 C 68.152344 75.945312 67.222656 75.667969 66.296875 75.390625 C 66.296875 75.34375 66.296875 75.296875 66.296875 75.25 Z M 66.296875 75.25 "/>
<path style=" stroke:none;fill-rule:nonzero;fill:rgb(40.784314%,78.431374%,62.7451%);fill-opacity:1;" d="M 107.382812 64.664062 C 108.476562 64.714844 109.371094 64.957031 110.167969 65.746094 C 110.257812 65.847656 110.351562 65.953125 110.445312 66.058594 C 109.933594 66.058594 109.679688 65.902344 109.226562 65.667969 C 108.621094 65.355469 108.015625 65.0625 107.382812 64.804688 C 107.382812 64.757812 107.382812 64.714844 107.382812 64.664062 Z M 107.382812 64.664062 "/>
<path style=" stroke:none;fill-rule:nonzero;fill:rgb(0%,44.313726%,25.098041%);fill-opacity:1;" d="M 101.253906 70.65625 C 101.253906 70.746094 101.253906 70.839844 101.253906 70.933594 C 99.53125 71.003906 99.53125 71.003906 97.773438 71.074219 C 98.824219 70.371094 100.046875 70.5 101.253906 70.65625 Z M 101.253906 70.65625 "/>
<path style=" stroke:none;fill-rule:nonzero;fill:rgb(9.019608%,47.843137%,30.588236%);fill-opacity:1;" d="M 75.90625 83.1875 C 76.457031 83.738281 76.703125 84.613281 76.777344 85.378906 C 76.777344 85.671875 76.761719 85.960938 76.742188 86.253906 C 76.21875 85.226562 75.972656 84.335938 75.90625 83.1875 Z M 75.90625 83.1875 "/>
<path style=" stroke:none;fill-rule:nonzero;fill:rgb(89.803922%,97.647059%,87.450981%);fill-opacity:1;" d="M 125.765625 75.808594 C 125.8125 75.808594 125.859375 75.808594 125.90625 75.808594 C 125.914062 75.914062 125.917969 76.019531 125.925781 76.128906 C 125.9375 76.265625 125.945312 76.40625 125.957031 76.546875 C 125.96875 76.683594 125.976562 76.824219 125.988281 76.964844 C 126.023438 77.371094 126.023438 77.371094 126.324219 77.757812 C 126.460938 77.964844 126.460938 77.964844 126.601562 78.175781 C 126.421875 78.367188 126.234375 78.550781 126.042969 78.734375 C 125.953125 78.734375 125.859375 78.734375 125.765625 78.734375 C 125.765625 77.765625 125.765625 76.800781 125.765625 75.808594 Z M 125.765625 75.808594 "/>
<path style=" stroke:none;fill-rule:nonzero;fill:rgb(19.607843%,60.000002%,44.313726%);fill-opacity:1;" d="M 87.046875 67.453125 C 87.140625 67.496094 87.230469 67.542969 87.324219 67.589844 C 86.867188 68.097656 86.40625 68.601562 85.933594 69.121094 C 85.796875 69.078125 85.65625 69.03125 85.515625 68.984375 C 85.605469 68.84375 85.699219 68.707031 85.792969 68.566406 C 85.886719 68.566406 85.976562 68.566406 86.074219 68.566406 C 86.105469 68.484375 86.136719 68.40625 86.167969 68.320312 C 86.398438 67.929688 86.683594 67.71875 87.046875 67.453125 Z M 87.046875 67.453125 "/>
<path style=" stroke:none;fill-rule:nonzero;fill:rgb(82.745099%,92.941177%,84.313726%);fill-opacity:1;" d="M 23.539062 64.804688 C 24.101562 64.871094 24.578125 64.925781 25.070312 65.222656 C 25.070312 65.316406 25.070312 65.40625 25.070312 65.5 C 25.207031 65.546875 25.34375 65.59375 25.488281 65.640625 C 25.488281 65.777344 25.488281 65.917969 25.488281 66.058594 C 25.023438 65.894531 24.683594 65.753906 24.375 65.363281 C 24.375 65.269531 24.375 65.179688 24.375 65.082031 C 23.960938 65.015625 23.960938 65.015625 23.539062 64.945312 C 23.539062 64.898438 23.539062 64.851562 23.539062 64.804688 Z M 23.539062 64.804688 "/>
<path style=" stroke:none;fill-rule:nonzero;fill:rgb(30.588236%,66.274512%,47.450981%);fill-opacity:1;" d="M 195.265625 96.976562 C 195.539062 96.976562 195.816406 96.976562 196.101562 96.976562 C 196.101562 97.804688 196.101562 98.632812 196.101562 99.484375 C 196.054688 99.484375 196.007812 99.484375 195.960938 99.484375 C 195.714844 98.65625 195.554688 97.933594 195.960938 97.117188 C 195.730469 97.117188 195.5 97.117188 195.265625 97.117188 C 195.265625 97.070312 195.265625 97.023438 195.265625 96.976562 Z M 195.265625 96.976562 "/>
<path style=" stroke:none;fill-rule:nonzero;fill:rgb(54.11765%,85.490197%,72.156864%);fill-opacity:1;" d="M 105.988281 63.832031 C 106.699219 63.988281 107.292969 64.171875 107.9375 64.527344 C 107.9375 64.570312 107.9375 64.617188 107.9375 64.664062 C 107.734375 64.644531 107.53125 64.625 107.328125 64.605469 C 107.160156 64.589844 107.160156 64.589844 106.988281 64.570312 C 106.683594 64.527344 106.683594 64.527344 106.40625 64.386719 C 106.40625 64.296875 106.40625 64.203125 106.40625 64.109375 C 106.269531 64.0625 106.128906 64.015625 105.988281 63.96875 C 105.988281 63.921875 105.988281 63.878906 105.988281 63.832031 Z M 105.988281 63.832031 "/>
<path style=" stroke:none;fill-rule:nonzero;fill:rgb(84.705883%,96.078432%,85.490197%);fill-opacity:1;" d="M 166.433594 74.695312 C 166.433594 74.878906 166.433594 75.0625 166.433594 75.25 C 165.78125 75.171875 165.132812 75.085938 164.484375 74.972656 C 164.484375 74.925781 164.484375 74.878906 164.484375 74.832031 C 165.140625 74.742188 165.769531 74.675781 166.433594 74.695312 Z M 166.433594 74.695312 "/>
<path style=" stroke:none;fill-rule:nonzero;fill:rgb(7.843138%,48.235294%,27.843139%);fill-opacity:1;" d="M 108.21875 74.414062 C 108.628906 74.484375 108.628906 74.484375 109.054688 74.554688 C 109.054688 74.738281 109.054688 74.921875 109.054688 75.113281 C 108.914062 75.203125 108.777344 75.296875 108.636719 75.390625 C 108.21875 74.886719 108.21875 74.886719 108.21875 74.414062 Z M 108.21875 74.414062 "/>
<path style=" stroke:none;fill-rule:nonzero;fill:rgb(85.09804%,95.686275%,87.843138%);fill-opacity:1;" d="M 89.554688 65.78125 C 88.796875 66.332031 88.796875 66.332031 88.023438 66.894531 C 87.976562 66.757812 87.929688 66.617188 87.882812 66.476562 C 87.976562 66.476562 88.066406 66.476562 88.160156 66.476562 C 88.191406 66.390625 88.226562 66.304688 88.257812 66.214844 C 88.585938 65.683594 88.980469 65.589844 89.554688 65.78125 Z M 89.554688 65.78125 "/>
<path style=" stroke:none;fill-rule:nonzero;fill:rgb(0.784314%,32.549021%,16.078432%);fill-opacity:1;" d="M 17.269531 70.792969 C 17.269531 70.839844 17.269531 70.886719 17.269531 70.933594 C 16.996094 70.941406 16.722656 70.945312 16.453125 70.949219 C 16.300781 70.953125 16.148438 70.957031 15.992188 70.960938 C 15.597656 70.933594 15.597656 70.933594 15.320312 70.65625 C 16.039062 70.414062 16.589844 70.472656 17.269531 70.792969 Z M 17.269531 70.792969 "/>
<path style=" stroke:none;fill-rule:nonzero;fill:rgb(80.784315%,92.941177%,85.490197%);fill-opacity:1;" d="M 126.324219 85.277344 C 126.601562 85.695312 126.601562 85.695312 126.566406 85.980469 C 126.488281 86.257812 126.40625 86.535156 126.324219 86.8125 C 126.230469 86.8125 126.140625 86.8125 126.042969 86.8125 C 126 86.902344 125.953125 86.996094 125.90625 87.089844 C 125.980469 86.453125 126.101562 85.878906 126.324219 85.277344 Z M 126.324219 85.277344 "/>
<path style=" stroke:none;fill-rule:nonzero;fill:rgb(22.352941%,46.27451%,31.37255%);fill-opacity:1;" d="M 38.996094 62.578125 C 38.703125 62.695312 38.40625 62.816406 38.109375 62.933594 C 37.863281 63.03125 37.863281 63.03125 37.609375 63.132812 C 37.1875 63.273438 37.1875 63.273438 36.90625 63.132812 C 37.085938 63.042969 37.261719 62.953125 37.4375 62.863281 C 37.539062 62.8125 37.636719 62.765625 37.738281 62.710938 C 38.226562 62.480469 38.484375 62.417969 38.996094 62.578125 Z M 38.996094 62.578125 "/>
<path style=" stroke:none;fill-rule:nonzero;fill:rgb(81.568629%,94.117647%,90.588236%);fill-opacity:1;" d="M 157.9375 97.394531 C 158.878906 97.65625 158.878906 97.65625 159.191406 97.8125 C 159.191406 97.949219 159.191406 98.089844 159.191406 98.230469 C 158.644531 98.046875 158.324219 97.824219 157.9375 97.394531 Z M 157.9375 97.394531 "/>
<path style=" stroke:none;fill-rule:nonzero;fill:rgb(5.098039%,58.039218%,38.039216%);fill-opacity:1;" d="M 107.9375 101.992188 C 108.03125 101.992188 108.121094 101.992188 108.21875 101.992188 C 108.21875 102.082031 108.21875 102.175781 108.21875 102.269531 C 108.308594 102.316406 108.402344 102.363281 108.496094 102.410156 C 107.695312 102.828125 107.695312 102.828125 107.382812 102.828125 C 107.382812 102.734375 107.382812 102.644531 107.382812 102.546875 C 107.472656 102.546875 107.566406 102.546875 107.660156 102.546875 C 107.753906 102.363281 107.84375 102.179688 107.9375 101.992188 Z M 107.9375 101.992188 "/>
<path style=" stroke:none;fill-rule:nonzero;fill:rgb(81.568629%,96.470588%,82.352942%);fill-opacity:1;" d="M 149.722656 91.683594 C 149.722656 92.136719 149.628906 92.351562 149.441406 92.757812 C 149.390625 92.867188 149.339844 92.980469 149.285156 93.097656 C 149.246094 93.183594 149.207031 93.269531 149.164062 93.355469 C 149.019531 92.921875 149.023438 92.792969 149.128906 92.363281 C 149.152344 92.265625 149.175781 92.167969 149.195312 92.066406 C 149.230469 91.988281 149.265625 91.90625 149.304688 91.824219 C 149.441406 91.777344 149.578125 91.734375 149.722656 91.683594 Z M 149.722656 91.683594 "/>
<path style=" stroke:none;fill-rule:nonzero;fill:rgb(85.09804%,96.078432%,88.235295%);fill-opacity:1;" d="M 142.757812 78.59375 C 142.894531 78.640625 143.035156 78.683594 143.175781 78.734375 C 143.175781 78.871094 143.175781 79.007812 143.175781 79.152344 C 143.265625 79.152344 143.359375 79.152344 143.453125 79.152344 C 143.75 79.792969 143.75 79.792969 143.59375 80.265625 C 143.453125 80.039062 143.3125 79.8125 143.175781 79.585938 C 143.097656 79.460938 143.019531 79.332031 142.941406 79.203125 C 142.757812 78.871094 142.757812 78.871094 142.757812 78.59375 Z M 142.757812 78.59375 "/>
<path style=" stroke:none;fill-rule:nonzero;fill:rgb(86.274511%,94.117647%,87.058824%);fill-opacity:1;" d="M 44.429688 68.425781 C 44.523438 68.652344 44.523438 68.652344 44.566406 68.984375 C 44.367188 69.4375 44.367188 69.4375 44.152344 69.820312 C 44.058594 69.820312 43.964844 69.820312 43.871094 69.820312 C 43.9375 69.613281 44.003906 69.40625 44.070312 69.199219 C 44.109375 69.085938 44.148438 68.972656 44.183594 68.851562 C 44.289062 68.566406 44.289062 68.566406 44.429688 68.425781 Z M 44.429688 68.425781 "/>
<path style=" stroke:none;fill-rule:nonzero;fill:rgb(80.392158%,95.294118%,86.666667%);fill-opacity:1;" d="M 114.34375 97.8125 C 114.34375 98.3125 114.253906 98.386719 113.925781 98.746094 C 113.851562 98.832031 113.773438 98.917969 113.691406 99.007812 C 113.632812 99.074219 113.570312 99.136719 113.507812 99.207031 C 113.417969 99.160156 113.324219 99.113281 113.230469 99.066406 C 113.597656 98.652344 113.964844 98.238281 114.34375 97.8125 Z M 114.34375 97.8125 "/>
<path style=" stroke:none;fill-rule:nonzero;fill:rgb(85.490197%,95.686275%,89.019608%);fill-opacity:1;" d="M 92.199219 93.355469 C 92.863281 93.476562 92.863281 93.476562 93.175781 93.636719 C 93.128906 93.820312 93.082031 94.003906 93.035156 94.191406 C 92.753906 93.964844 92.476562 93.730469 92.199219 93.496094 C 92.199219 93.449219 92.199219 93.402344 92.199219 93.355469 Z M 92.199219 93.355469 "/>
<path style=" stroke:none;fill-rule:nonzero;fill:rgb(25.098041%,60.000002%,43.137255%);fill-opacity:1;" d="M 76.742188 85.277344 C 77.074219 85.613281 77.066406 85.742188 77.105469 86.203125 C 77.117188 86.316406 77.128906 86.429688 77.136719 86.546875 C 77.144531 86.632812 77.152344 86.722656 77.160156 86.8125 C 76.886719 86.582031 76.75 86.46875 76.699219 86.109375 C 76.714844 85.832031 76.726562 85.554688 76.742188 85.277344 Z M 76.742188 85.277344 "/>
<path style=" stroke:none;fill-rule:nonzero;fill:rgb(14.901961%,50.196081%,33.333334%);fill-opacity:1;" d="M 75.90625 83.1875 C 76.253906 83.539062 76.34375 83.824219 76.460938 84.304688 C 76.324219 84.511719 76.324219 84.511719 76.183594 84.722656 C 76.019531 84.183594 75.90625 83.757812 75.90625 83.1875 Z M 75.90625 83.1875 "/>
<path style=" stroke:none;fill-rule:nonzero;fill:rgb(12.941177%,52.156866%,34.509805%);fill-opacity:1;" d="M 152.507812 77.617188 C 152.597656 77.664062 152.691406 77.710938 152.785156 77.757812 C 152.660156 77.902344 152.53125 78.042969 152.402344 78.183594 C 152.296875 78.304688 152.296875 78.304688 152.1875 78.425781 C 152.109375 78.480469 152.03125 78.535156 151.949219 78.59375 C 151.765625 78.546875 151.582031 78.5 151.394531 78.453125 C 151.761719 78.179688 152.128906 77.902344 152.507812 77.617188 Z M 152.507812 77.617188 "/>
<path style=" stroke:none;fill-rule:nonzero;fill:rgb(52.549022%,78.431374%,66.666669%);fill-opacity:1;" d="M 66.296875 75.25 C 67.375 75.234375 67.375 75.234375 67.6875 75.390625 C 67.6875 75.480469 67.6875 75.574219 67.6875 75.667969 C 66.609375 75.5625 66.609375 75.5625 66.296875 75.25 Z M 66.296875 75.25 "/>
<path style=" stroke:none;fill-rule:nonzero;fill:rgb(6.666667%,54.509807%,35.686275%);fill-opacity:1;" d="M 91.226562 74.695312 C 91.316406 74.695312 91.410156 74.695312 91.503906 74.695312 C 91.320312 75.242188 91.097656 75.5625 90.667969 75.945312 C 90.742188 75.417969 90.859375 75.085938 91.226562 74.695312 Z M 91.226562 74.695312 "/>
<path style=" stroke:none;fill-rule:nonzero;fill:rgb(20.392157%,55.29412%,39.607844%);fill-opacity:1;" d="M 188.300781 67.589844 C 188.253906 67.683594 188.207031 67.773438 188.160156 67.867188 C 187.035156 68.074219 187.035156 68.074219 186.492188 67.867188 C 187.121094 67.667969 187.628906 67.558594 188.300781 67.589844 Z M 188.300781 67.589844 "/>
<path style=" stroke:none;fill-rule:nonzero;fill:rgb(10.588235%,51.764709%,37.64706%);fill-opacity:1;" d="M 76.460938 95.027344 C 76.378906 95.308594 76.285156 95.585938 76.183594 95.863281 C 76.046875 95.933594 76.046875 95.933594 75.90625 96.003906 C 75.808594 95.75 75.808594 95.75 75.765625 95.445312 C 75.992188 95.144531 76.078125 95.027344 76.460938 95.027344 Z M 76.460938 95.027344 "/>
<path style=" stroke:none;fill-rule:nonzero;fill:rgb(25.882354%,53.725493%,41.568628%);fill-opacity:1;" d="M 57.660156 103.523438 C 58.707031 103.472656 58.707031 103.472656 59.054688 103.734375 C 59.121094 103.835938 59.121094 103.835938 59.191406 103.941406 C 59.015625 103.925781 58.84375 103.90625 58.660156 103.890625 C 58.511719 103.875 58.511719 103.875 58.363281 103.859375 C 58.078125 103.800781 58.078125 103.800781 57.660156 103.523438 Z M 57.660156 103.523438 "/>
<path style=" stroke:none;fill-rule:nonzero;fill:rgb(10.196079%,56.470591%,36.862746%);fill-opacity:1;" d="M 113.648438 96.421875 C 113.878906 96.648438 114.109375 96.878906 114.34375 97.117188 C 113.925781 97.394531 113.925781 97.394531 113.648438 97.394531 C 113.648438 97.074219 113.648438 96.75 113.648438 96.421875 Z M 113.648438 96.421875 "/>
<path style=" stroke:none;fill-rule:nonzero;fill:rgb(73.333335%,92.941177%,82.352942%);fill-opacity:1;" d="M 89.554688 77.898438 C 89.601562 77.898438 89.644531 77.898438 89.695312 77.898438 C 89.726562 78.359375 89.726562 78.359375 89.695312 78.871094 C 89.507812 79.007812 89.324219 79.148438 89.136719 79.289062 C 89.273438 78.828125 89.414062 78.371094 89.554688 77.898438 Z M 89.554688 77.898438 "/>
<path style=" stroke:none;fill-rule:nonzero;fill:rgb(62.352943%,85.09804%,72.941178%);fill-opacity:1;" d="M 113.371094 68.425781 C 113.714844 68.496094 113.714844 68.496094 114.066406 68.566406 C 114.113281 68.933594 114.160156 69.300781 114.207031 69.679688 C 113.816406 69.484375 113.800781 69.242188 113.648438 68.84375 C 113.558594 68.707031 113.464844 68.566406 113.371094 68.425781 Z M 113.371094 68.425781 "/>
<path style=" stroke:none;fill-rule:nonzero;fill:rgb(58.823532%,83.92157%,71.372551%);fill-opacity:1;" d="M 109.332031 65.222656 C 109.800781 65.421875 110.097656 65.6875 110.445312 66.058594 C 109.898438 66.058594 109.726562 65.863281 109.332031 65.5 C 109.332031 65.410156 109.332031 65.316406 109.332031 65.222656 Z M 109.332031 65.222656 "/>
<path style=" stroke:none;fill-rule:nonzero;fill:rgb(13.333334%,60.392159%,41.568628%);fill-opacity:1;" d="M 106.824219 102.6875 C 107.007812 102.78125 107.191406 102.871094 107.382812 102.964844 C 106.761719 103.171875 106.761719 103.171875 106.128906 103.382812 C 106.128906 103.292969 106.128906 103.199219 106.128906 103.105469 C 106.441406 102.863281 106.441406 102.863281 106.824219 102.6875 Z M 106.824219 102.6875 "/>
<path style=" stroke:none;fill-rule:nonzero;fill:rgb(0%,47.450981%,33.333334%);fill-opacity:1;" d="M 144.566406 102.410156 C 144.613281 102.410156 144.660156 102.410156 144.707031 102.410156 C 144.707031 102.777344 144.707031 103.144531 144.707031 103.523438 C 144.570312 103.476562 144.433594 103.433594 144.289062 103.382812 C 144.382812 103.0625 144.472656 102.742188 144.566406 102.410156 Z M 144.566406 102.410156 "/>
<path style=" stroke:none;fill-rule:nonzero;fill:rgb(5.490196%,49.019608%,32.156864%);fill-opacity:1;" d="M 76.324219 94.054688 C 76.460938 94.054688 76.597656 94.054688 76.742188 94.054688 C 76.617188 94.714844 76.617188 94.714844 76.460938 95.027344 C 76.371094 95.027344 76.277344 95.027344 76.183594 95.027344 C 76.230469 94.707031 76.277344 94.382812 76.324219 94.054688 Z M 76.324219 94.054688 "/>
<path style=" stroke:none;fill-rule:nonzero;fill:rgb(76.862746%,92.156863%,83.529413%);fill-opacity:1;" d="M 56.683594 85.558594 C 56.730469 85.558594 56.777344 85.558594 56.824219 85.558594 C 56.875 86.328125 56.875 86.328125 56.617188 86.652344 C 56.511719 86.730469 56.511719 86.730469 56.40625 86.8125 C 56.359375 86.71875 56.316406 86.625 56.265625 86.53125 C 56.398438 86.203125 56.535156 85.878906 56.683594 85.558594 Z M 56.683594 85.558594 "/>
<path style=" stroke:none;fill-rule:nonzero;fill:rgb(83.92157%,95.294118%,85.882354%);fill-opacity:1;" d="M 65.597656 74.832031 C 65.964844 74.832031 66.335938 74.832031 66.714844 74.832031 C 66.757812 74.96875 66.804688 75.109375 66.851562 75.25 C 66.332031 75.179688 66.042969 75.128906 65.597656 74.832031 Z M 65.597656 74.832031 "/>
<path style=" stroke:none;fill-rule:nonzero;fill:rgb(15.686275%,54.901963%,39.215687%);fill-opacity:1;" d="M 83.984375 70.792969 C 84.027344 70.929688 84.074219 71.070312 84.121094 71.210938 C 83.894531 71.441406 83.664062 71.671875 83.425781 71.90625 C 83.507812 71.441406 83.683594 71.160156 83.984375 70.792969 Z M 83.984375 70.792969 "/>
<path style=" stroke:none;fill-rule:nonzero;fill:rgb(8.235294%,39.607844%,25.098041%);fill-opacity:1;" d="M 42.898438 63.414062 C 43.125 63.640625 43.355469 63.871094 43.59375 64.109375 C 43.457031 64.15625 43.316406 64.199219 43.175781 64.246094 C 43.082031 64.203125 42.992188 64.15625 42.898438 64.109375 C 42.898438 63.878906 42.898438 63.648438 42.898438 63.414062 Z M 42.898438 63.414062 "/>
</g>
</svg>
